<svg id="Capa_1" enable-background="new 0 0 512 512" height="512" viewBox="0 0 512 512" width="512" xmlns="http://www.w3.org/2000/svg" xmlns:xlink="http://www.w3.org/1999/xlink"><linearGradient id="SVGID_1_" gradientUnits="userSpaceOnUse" x1="0" x2="512" y1="256" y2="256"><stop offset="0" stop-color="#00f2fe"/><stop offset=".0208" stop-color="#03effe"/><stop offset=".2931" stop-color="#24d2fe"/><stop offset=".5538" stop-color="#3cbdfe"/><stop offset=".7956" stop-color="#4ab0fe"/><stop offset="1" stop-color="#4facfe"/></linearGradient><g><path d="m492 256.787c11.046 0 20-8.954 20-20v-139.393c0-44.112-35.888-80-80-80h-352c-44.112 0-80 35.888-80 80v240.432c0 44.112 35.888 80 80 80h104.298v36.781h-56.596c-11.046 0-20 8.954-20 20s8.954 20 20 20h256.596c11.046 0 20-8.954 20-20s-8.954-20-20-20h-56.596v-36.781h104.298c44.112 0 80-35.888 80-80v-1.038c0-11.046-8.954-20-20-20s-20 8.954-20 20v1.038c0 22.056-17.944 40-40 40h-352c-22.056 0-40-17.944-40-40v-240.432c0-22.056 17.944-40 40-40h352c22.056 0 40 17.944 40 40v139.394c0 11.045 8.954 19.999 20 19.999zm-204.298 161.038v36.781h-63.404v-36.781zm-31.702-61.973c11.046 0 20-8.954 20-20v-5.452h17.282c6.384 0 12.248-3.032 15.961-7.948l11.111 11.112c3.906 3.906 9.023 5.858 14.143 5.858 5.118 0 10.237-1.953 14.142-5.857 7.811-7.811 7.812-20.474.001-28.284l-23.728-23.729 6.314-17.554c20.207-56.189 6.786-108.863-38.813-152.328l-22.613-21.555c-7.725-7.365-19.873-7.365-27.598 0l-22.613 21.555c-45.6 43.465-59.021 96.139-38.812 152.328l6.313 17.553-23.73 23.729c-7.811 7.811-7.81 20.474.001 28.284 3.905 3.905 9.023 5.857 14.142 5.857s10.237-1.953 14.143-5.858l11.111-11.112c3.712 4.916 9.577 7.948 15.961 7.948h17.282v5.452c0 11.046 8.954 20.001 20 20.001zm-8.814-215.229 8.814-8.401 8.814 8.401c4.33 4.127 8.262 8.307 11.798 12.545h-41.225c3.537-4.238 7.469-8.418 11.799-12.545zm-28.771 109.838c-7.306-20.316-8.741-39.332-4.24-57.293h83.651c4.501 17.961 3.067 36.977-4.239 57.293l-14.364 39.938h-46.443zm45.384-3.865c-7.788 3.308-17.08 1.225-22.714-5.085-5.496-6.155-6.611-15.291-2.792-22.598 3.945-7.547 12.556-11.864 20.971-10.453 8.157 1.368 14.681 7.739 16.345 15.82 1.878 9.177-3.223 18.669-11.81 22.316z" fill="url(#SVGID_1_)"/></g></svg>