<svg id="Capa_1" enable-background="new 0 0 512 512" height="512" viewBox="0 0 512 512" width="512" xmlns="http://www.w3.org/2000/svg" xmlns:xlink="http://www.w3.org/1999/xlink"><linearGradient id="SVGID_1_" gradientUnits="userSpaceOnUse" x1="14.569" x2="497.431" y1="256" y2="256"><stop offset="0" stop-color="#00f2fe"/><stop offset=".0208" stop-color="#03effe"/><stop offset=".2931" stop-color="#24d2fe"/><stop offset=".5538" stop-color="#3cbdfe"/><stop offset=".7956" stop-color="#4ab0fe"/><stop offset="1" stop-color="#4facfe"/></linearGradient><path d="m497.431 216.624c-.018 32.691-7.739 64.63-22.948 94.928-4.956 9.872-16.975 13.855-26.847 8.902-9.872-4.956-13.857-16.976-8.902-26.847 12.392-24.686 18.683-50.594 18.697-77.005.054-96.649-79.202-175.875-176-176.601-50.114 0-98.837 21.898-132.565 60.214-47.299 53.732-79.313 131.553-94.187 173.159-.094.263-.344.96.243 1.792.587.834 1.331.834 1.611.834h27.898c11.046 0 20 8.954 20 20v57.5c0 21.78 17.72 39.5 39.5 39.5h19.5c33.084 0 60 26.916 60 60v19h183v-41.829c0-11.46.655-23.042 1.946-34.425 1.245-10.975 11.157-18.86 22.126-17.619 10.976 1.245 18.864 11.151 17.619 22.126-1.122 9.893-1.691 19.958-1.691 29.917v61.83c0 11.046-8.954 20-20 20h-223c-11.045 0-20-8.954-20-20v-39c0-11.028-8.972-20-20-20h-19.5c-43.836 0-79.5-35.664-79.5-79.5v-37.5h-7.898c-13.634 0-26.461-6.653-34.312-17.797-7.85-11.143-9.797-25.458-5.208-38.294 15.837-44.3 50.125-127.388 101.829-186.124 41.325-46.947 100.987-73.785 162.589-73.785 57.515.432 112.4 23.158 153.003 63.981 40.657 40.878 63.029 95.087 62.997 152.643zm-107.131 34.458-8.084 16.083c-4.348 8.647-14.265 12.939-23.544 10.196l-24.067-7.282c-5.109 3.989-10.712 7.369-16.708 10.035l-4.214 25.046c-1.553 9.703-9.923 16.84-19.749 16.84h-19.004c-9.826 0-18.196-7.138-19.749-16.84l-4.214-25.046c-5.995-2.666-11.598-6.046-16.708-10.035l-24.066 7.282c-9.279 2.744-19.196-1.548-23.544-10.196l-8.084-16.083c-4.414-8.779-1.795-19.463 6.176-25.208l18.888-13.555c-.116-1.76-.148-8.271-.069-9.733l-19.265-14.713c-8.281-6.324-10.319-17.946-4.685-26.71l10.915-16.978c5.154-8.018 15.25-11.282 24.125-7.804l19.482 7.641c5.274-4.135 11.075-7.624 17.294-10.343l3.82-21.222c1.715-9.526 10.005-16.457 19.684-16.457h19.005c9.679 0 17.969 6.931 19.684 16.457l3.82 21.222c6.219 2.719 12.02 6.208 17.294 10.343l19.482-7.641c8.875-3.479 18.972-.214 24.125 7.804l10.915 16.978c5.635 8.764 3.596 20.386-4.685 26.71l-19.265 14.713c.08 1.462.047 7.973-.069 9.733l18.888 13.555c7.972 5.744 10.59 16.429 6.176 25.208zm-65.869-42.082c0-22.091-17.908-40-39.999-40s-39.999 17.909-39.999 40 17.908 40 39.999 40 39.999-17.909 39.999-40z" fill="url(#SVGID_1_)"/></svg>