<svg height="512pt" viewBox="0 0 512 511" width="512pt" xmlns="http://www.w3.org/2000/svg" xmlns:xlink="http://www.w3.org/1999/xlink"><linearGradient id="a" gradientUnits="userSpaceOnUse" x1="0" x2="512" y1="256.444545" y2="256.444545"><stop offset="0" stop-color="#00f2fe"/><stop offset=".0208" stop-color="#03effe"/><stop offset=".2931" stop-color="#24d2fe"/><stop offset=".5538" stop-color="#3cbdfe"/><stop offset=".7956" stop-color="#4ab0fe"/><stop offset="1" stop-color="#4facfe"/></linearGradient><path d="m512 152.511719v100c0 11.042969-8.953125 20-20 20s-20-8.957031-20-20v-100c0-3.636719-.484375-7.226563-1.4375-10.679688-2.9375-10.648437 3.308594-21.660156 13.957031-24.601562 10.644531-2.9375 21.664063 3.308593 24.601563 13.957031 1.910156 6.917969 2.878906 14.09375 2.878906 21.324219zm-20 180c-11.046875 0-20 8.953125-20 20 0 22.054687-17.945312 40-40 40h-352c-22.054688 0-40-17.945313-40-40v-200c0-22.058594 17.945312-40 40-40h140c11.046875 0 20-8.957031 20-20 0-11.046875-8.953125-20-20-20h-140c-44.113281 0-80 35.886719-80 80v200c0 44.109375 35.886719 80 80 80h156v39.875h-70c-11.046875 0-20 8.957031-20 20 0 11.046875 8.953125 20 20 20h180c11.046875 0 20-8.953125 20-20 0-11.042969-8.953125-20-20-20h-70v-39.875h156c44.113281 0 80-35.890625 80-80 0-11.046875-8.953125-20-20-20zm-254.386719-170.988281 113.253907-136.839844c9.414062-12.648438 23.144531-20.960938 38.746093-23.433594 15.832031-2.503906 31.6875 1.304688 44.652344 10.722656 12.964844 9.421875 21.488281 23.328125 23.992187 39.15625 2.507813 15.832032-1.300781 31.6875-10.722656 44.652344l-.789062 1.015625-122.070313 147.144531c1.878907 25.027344-6.667969 50.699219-25.691406 69.800782-33.0625 33.191406-70.214844 37.769531-105.441406 37.769531-49.589844 0-89.042969-29.757813-90.695313-31.023438-5.722656-4.378906-8.648437-11.496093-7.65625-18.632812.992188-7.136719 5.746094-13.191407 12.445313-15.84375 23.96875-9.496094 29.542969-25.464844 37.261719-47.570313 5.835937-16.722656 12.453124-35.675781 28.652343-51.132812 17.597657-16.789063 40.230469-25.992188 63.726563-25.792969.113281-.003906.222656.007813.335937.007813zm33.03125 54.367187c-9.152343-9.1875-21.097656-14.296875-33.632812-14.378906-.105469 0-.214844 0-.320313 0-12.953125 0-25.558594 5.226562-35.527344 14.734375-9.226562 8.804687-13.523437 21.117187-18.503906 35.375-5.773437 16.546875-12.496094 35.808594-28.675781 51.597656 11.144531 4.496094 24.898437 8.292969 39.558594 8.292969 31.613281 0 55.539062-4.347657 77.105469-26 19.117187-19.195313 19.117187-50.425781-.003907-69.621094zm9.328125-42.8125c6.855469 3.933594 13.253906 8.804687 19.015625 14.585937 3.832031 3.847657 7.214844 7.976563 10.199219 12.296876l106.296875-128.128907c2.914063-4.238281 4.074219-9.347656 3.265625-14.445312-.835938-5.277344-3.675781-9.914063-7.996094-13.054688-4.324218-3.140625-9.605468-4.40625-14.886718-3.574219-5.273438.835938-9.910157 3.675782-13.050782 8l-.769531.996094zm0 0" fill="url(#a)"/></svg>