<svg id="Layer_1" enable-background="new 0 0 512 512" viewBox="0 0 512 512" xmlns="http://www.w3.org/2000/svg" xmlns:xlink="http://www.w3.org/1999/xlink"><linearGradient id="SVGID_1_" gradientUnits="userSpaceOnUse" x1=".233" x2="511.767" y1="256" y2="256"><stop offset="0" stop-color="#00f2fe"/><stop offset=".0208" stop-color="#03effe"/><stop offset=".2931" stop-color="#24d2fe"/><stop offset=".5538" stop-color="#3cbdfe"/><stop offset=".7956" stop-color="#4ab0fe"/><stop offset="1" stop-color="#4facfe"/></linearGradient><g><path d="m200.612 137.038c6.74 8.751 5.11 21.309-3.64 28.049-25.22 19.427-39.684 49.068-39.684 81.322 0 11.046-8.954 20-20 20s-20-8.954-20-20c0-22.211 5.201-44.367 15.041-64.072 9.527-19.079 23.439-36.002 40.232-48.938 8.752-6.741 21.31-5.11 28.051 3.639zm311.155 354.962c0 11.046-8.954 20-20 20h-471.534c-11.046 0-20-8.954-20-20s8.954-20 20-20h9.991v-23.729c0-32.035 20.682-59.331 49.394-69.238-9.563-13.024-17.686-27.085-24.289-42.077-12.582-28.568-18.962-59.033-18.962-90.548 0-59.368 22.811-115.197 64.229-157.203 41.495-42.081 96.685-65.257 155.404-65.257 30.56 0 60.92 6.502 88.707 18.908 3.486-4.886 6.681-10.011 9.561-15.351l9.166-16.997c3.491-6.473 10.251-10.508 17.604-10.508s14.113 4.034 17.604 10.507l9.167 16.998c13.028 24.159 32.492 43.905 56.288 57.104v.001l16.761 9.297c6.356 3.525 10.299 10.222 10.299 17.489 0 7.269-3.943 13.965-10.3 17.49l-16.761 9.296c-4.199 2.329-8.263 4.862-12.181 7.587 15.558 31.049 23.717 65.512 23.717 100.64 0 18.08-2.15 36.071-6.392 53.474-2.229 9.14-10.409 15.269-19.416 15.269-1.568 0-3.16-.186-4.752-.573-10.731-2.616-17.311-13.437-14.695-24.168 3.487-14.305 5.255-29.109 5.255-44.001 0-24.777-4.927-49.136-14.388-71.654-5.021 6.406-9.519 13.269-13.435 20.53l-9.167 16.998c-3.49 6.472-10.251 10.507-17.604 10.507-7.354 0-14.113-4.035-17.604-10.508l-9.166-16.998c-13.029-24.158-32.494-43.905-56.289-57.103l-16.76-9.296c-6.355-3.525-10.299-10.222-10.299-17.49s3.942-13.964 10.299-17.489l16.76-9.297c5.776-3.204 11.297-6.794 16.533-10.739-18.736-6.532-38.57-9.922-58.513-9.922-99.05 0-179.632 81.852-179.632 182.461 0 48.139 18.955 94.589 52.251 128.646h279.94c40.371 0 73.216 32.845 73.216 73.216v23.728h9.991c11.047 0 20.002 8.954 20.002 20zm-130.729-431.4c-13.296 20.144-30.353 37.376-50.278 50.796 19.926 13.419 36.982 30.652 50.278 50.795 13.295-20.143 30.353-37.376 50.278-50.795-19.925-13.42-36.982-30.654-50.278-50.796zm60.737 411.4v-23.729c0-18.315-14.9-33.216-33.216-33.216h-305.119c-18.315 0-33.216 14.9-33.216 33.216v23.729z" fill="url(#SVGID_1_)"/></g><g/><g/><g/><g/><g/><g/><g/><g/><g/><g/><g/><g/><g/><g/><g/></svg>