<?xml version="1.0" encoding="iso-8859-1"?>
<!-- Generator: Adobe Illustrator 19.0.0, SVG Export Plug-In . SVG Version: 6.00 Build 0)  -->
<svg xmlns="http://www.w3.org/2000/svg" xmlns:xlink="http://www.w3.org/1999/xlink" version="1.1" id="Layer_1" x="0px" y="0px" viewBox="0 0 512 512" style="enable-background:new 0 0 512 512;" xml:space="preserve" width="512" height="512">
<linearGradient id="SVGID_1_" gradientUnits="userSpaceOnUse" x1="0" y1="256" x2="512" y2="256">
	<stop offset="0" style="stop-color:#00F2FE"/>
	<stop offset="0.0208" style="stop-color:#03EFFE"/>
	<stop offset="0.2931" style="stop-color:#24D2FE"/>
	<stop offset="0.5538" style="stop-color:#3CBDFE"/>
	<stop offset="0.7956" style="stop-color:#4AB0FE"/>
	<stop offset="1" style="stop-color:#4FACFE"/>
</linearGradient>
<path style="fill:url(#SVGID_1_);" d="M512,132.685v182c0,11.046-8.954,20-20,20s-20-8.954-20-20v-182  c0-5.342-2.08-10.364-5.857-14.141c-3.777-3.776-8.799-5.856-14.141-5.855L216,112.685c-11.046,0-20-8.955-20-20v-2.013  c0-22.051-17.94-39.995-39.992-40l-76.015-0.024c-22.049,0-39.993,17.944-39.993,40v309.075c0,22.056,17.944,40,40,40h142  c11.046,0,20,8.954,20,20s-8.954,20-20,20H80c-44.112,0-80-35.888-80-80V90.648c0-44.112,35.888-80,80-80l76.02,0.024  c37.917,0.008,69.759,26.542,77.941,62.013l218.038,0.003c0.003,0,0.007,0,0.01,0c16.021,0,31.085,6.239,42.417,17.569  C505.759,101.59,512,116.658,512,132.685z M484.862,401.465c22.813,22.814,22.813,59.935,0,82.749  c-11.052,11.052-25.746,17.138-41.375,17.138c-15.604,0-30.275-6.067-41.321-17.084l-67.303-66.245  c-13.806,6.024-29.301,9.148-40.362,9.167c-0.054,0-0.111,0-0.165,0c-31.609,0.001-59.9-14.772-79.683-41.61  c-16.352-22.184-25.701-51.995-25.653-81.789c0.02-11.463,2.121-23.195,6.425-35.869c2.224-6.548,7.672-11.483,14.407-13.049  c6.737-1.566,13.803,0.458,18.688,5.353l48.922,49.026l25.516-5.788l6.023-25.953L260.8,228.313  c-4.813-4.915-6.763-11.959-5.161-18.65c1.602-6.691,6.529-12.089,13.047-14.291c12.097-4.088,23.139-6.001,34.751-6.021  c0.075,0,0.155,0,0.229,0c35.887,0,71.12,13.821,94.298,37c18.932,18.931,28.916,42.619,28.873,68.501  c-0.021,12.103-3.839,27.141-9.798,40.154l67.678,66.314C484.766,401.369,484.813,401.417,484.862,401.465z M456.635,429.806  l-78.543-76.961c-7.072-6.929-8.01-17.99-2.205-26.01c6.251-8.639,10.937-24.045,10.95-32.049  c0.025-15.232-5.747-28.741-17.157-40.151c-12.65-12.65-30.935-21.223-50.776-24.161l26.328,26.884  c4.779,4.88,6.737,11.862,5.193,18.516l-11.338,48.844c-1.733,7.467-7.583,13.287-15.059,14.982l-48.516,11.004  c-6.703,1.52-13.724-0.51-18.581-5.377l-26.968-27.025c2.199,16.251,8.086,31.602,16.889,43.544  c8.525,11.567,23.681,25.343,47.482,25.343c0.033,0,0.066,0,0.101,0c8.596-0.014,23.946-4.164,32.228-10.096  c3.503-2.509,7.582-3.741,11.641-3.741c5.104,0,10.174,1.946,14.035,5.746l77.945,76.72c0.038,0.037,0.075,0.074,0.113,0.112  c3.496,3.497,8.146,5.422,13.09,5.422s9.594-1.926,13.09-5.422C463.776,448.731,463.795,437.03,456.635,429.806z"/>















</svg>
