<svg id="Capa_1" enable-background="new 0 0 512.035 512.035" height="512" viewBox="0 0 512.035 512.035" width="512" xmlns="http://www.w3.org/2000/svg" xmlns:xlink="http://www.w3.org/1999/xlink"><linearGradient id="SVGID_1_" gradientUnits="userSpaceOnUse" x1="55.636" x2="456.4" y1="256.018" y2="256.018"><stop offset="0" stop-color="#00f2fe"/><stop offset=".0208" stop-color="#03effe"/><stop offset=".2931" stop-color="#24d2fe"/><stop offset=".5538" stop-color="#3cbdfe"/><stop offset=".7956" stop-color="#4ab0fe"/><stop offset="1" stop-color="#4facfe"/></linearGradient><g><path d="m340.62 184.847h-16.742v-9.137c0-37.418-30.442-67.86-67.86-67.86s-67.86 30.442-67.86 67.86v9.137h-16.742c-11.046 0-20 8.954-20 20v111.26c0 40.864 33.245 74.109 74.109 74.109h60.987c40.864 0 74.109-33.245 74.109-74.109v-111.26c-.001-11.045-8.955-20-20.001-20zm-112.463-9.137c0-15.362 12.498-27.86 27.86-27.86s27.86 12.498 27.86 27.86v9.137h-55.721v-9.137zm92.463 140.397c0 18.808-15.302 34.109-34.109 34.109h-60.987c-18.808 0-34.109-15.301-34.109-34.109v-91.26h129.205zm135.78-194.278v200.493c0 38-13.49 74.964-37.986 104.083-7.11 8.452-19.728 9.54-28.18 2.43s-9.54-19.727-2.43-28.18c18.44-21.92 28.596-49.74 28.596-78.333v-200.493c0-7.493-5.35-14.065-12.72-15.628-42.385-8.989-82.141-25.728-118.16-49.753l-20.549-13.706c-5.438-3.627-12.467-3.628-17.906 0l-20.548 13.706c-36.021 24.025-75.776 40.765-118.161 49.753-7.37 1.563-12.719 8.135-12.719 15.628v200.493c0 47.602 28.075 91.129 71.525 110.891l82.172 37.372c4.249 1.933 9.122 1.932 13.37 0l47.685-21.688c10.056-4.574 21.912-.13 26.486 9.926 4.572 10.055.129 21.913-9.926 26.485l-47.685 21.687c-7.386 3.359-15.316 5.039-23.245 5.04-7.93 0-15.858-1.68-23.246-5.04l-82.171-37.371c-57.689-26.237-94.965-84.057-94.965-147.302v-200.493c0-26.271 18.682-49.299 44.421-54.758 37.401-7.932 72.48-22.702 104.264-43.901l20.548-13.706c18.922-12.62 43.375-12.62 62.297 0l20.549 13.706c31.782 21.199 66.861 35.969 104.264 43.901 25.738 5.459 44.42 28.488 44.42 54.758z" fill="url(#SVGID_1_)"/></g></svg>