<svg id="Capa_1" enable-background="new 0 0 512 512" height="512" viewBox="0 0 512 512" width="512" xmlns="http://www.w3.org/2000/svg" xmlns:xlink="http://www.w3.org/1999/xlink"><linearGradient id="SVGID_1_" gradientUnits="userSpaceOnUse" x1="0" x2="512" y1="256" y2="256"><stop offset="0" stop-color="#00f2fe"/><stop offset=".0208" stop-color="#03effe"/><stop offset=".2931" stop-color="#24d2fe"/><stop offset=".5538" stop-color="#3cbdfe"/><stop offset=".7956" stop-color="#4ab0fe"/><stop offset="1" stop-color="#4facfe"/></linearGradient><path d="m273.812 89.968c-3.707-5.579-9.96-8.931-16.658-8.931h-2.308c-6.698 0-12.951 3.353-16.658 8.931-7.852 11.817-23.396 26.251-74.332 33.043-9.936 1.325-17.356 9.801-17.356 19.825v106.807c0 32.165 16.055 56.742 49.082 75.136l50.687 28.229c3.025 1.685 6.378 2.527 9.731 2.527s6.707-.842 9.731-2.527l50.686-28.229c33.027-18.394 49.082-42.971 49.082-75.136v-106.808c0-10.024-7.42-18.5-17.356-19.825-50.935-6.791-66.479-21.225-74.331-33.042zm51.688 159.675c0 14.582-4.854 26.997-28.544 40.19l-40.956 22.81-40.955-22.81c-23.69-13.194-28.544-25.609-28.544-40.191v-89.762c30.732-5.833 53.209-15.463 69.5-29.917 16.29 14.453 38.767 24.083 69.5 29.917v89.763zm-74.639-39.783 15.821-18.954c7.077-8.48 19.69-9.617 28.17-2.538 8.48 7.078 9.616 19.69 2.538 28.17l-30.418 36.443c-3.688 4.418-9.101 7.034-14.854 7.178-.167.004-.334.006-.5.006-5.574 0-10.904-2.327-14.695-6.434l-21.655-23.457c-7.493-8.116-6.987-20.77 1.129-28.262 8.116-7.493 20.769-6.988 28.262 1.129zm241.139 56.289c11.046 0 20-8.955 20-20v-155.821c0-44.112-35.888-80-80-80h-352c-44.112 0-80 35.888-80 80v255.917c0 44.112 35.888 80 80 80h113.627v35.427h-81.373c-11.046 0-20 8.954-20 20s8.954 20 20 20h287.491c11.046 0 20-8.954 20-20s-8.954-20-20-20h-81.373v-35.427h113.628c44.112 0 80-35.888 80-80.096 0-11.046-8.954-19.952-20-19.952s-20 9.002-20 20.048c0 22.056-17.944 40-40 40h-352c-22.056 0-40-17.944-40-40v-255.917c0-22.056 17.944-40 40-40h352c22.056 0 40 17.944 40 40v155.821c0 11.045 8.954 20 20 20zm-213.627 160.096v35.427h-44.745v-35.427z" fill="url(#SVGID_1_)"/></svg>