<svg height="512pt" viewBox="0 0 512 512" width="512pt" xmlns="http://www.w3.org/2000/svg" xmlns:xlink="http://www.w3.org/1999/xlink"><linearGradient id="a" gradientUnits="userSpaceOnUse" x1="0" x2="512" y1="256" y2="256"><stop offset="0" stop-color="#00f2fe"/><stop offset=".0208" stop-color="#03effe"/><stop offset=".2931" stop-color="#24d2fe"/><stop offset=".5538" stop-color="#3cbdfe"/><stop offset=".7956" stop-color="#4ab0fe"/><stop offset="1" stop-color="#4facfe"/></linearGradient><path d="m80 196c0 22.054688 17.945312 40 40 40h272c22.054688 0 40-17.945312 40-40v-77c0-22.054688-17.945312-40-40-40h-272c-22.054688 0-40 17.945312-40 40zm40-77h272l.023438 77s-.007813 0-.023438 0h-272zm116 274v-77c0-22.054688-17.945312-40-40-40h-76c-22.054688 0-40 17.945312-40 40v77c0 22.054688 17.945312 40 40 40h76c22.054688 0 40-17.945312 40-40zm-40 0h-76v-77h76l.023438 77s-.003907 0-.023438 0zm236-77c0-22.054688-17.945312-40-40-40h-76c-22.054688 0-40 17.945312-40 40v77c0 22.054688 17.945312 40 40 40h76c22.054688 0 40-17.945312 40-40zm-40 77h-76v-77h76l.023438 77s-.003907 0-.023438 0zm-195-373c0-11.046875 8.953125-20 20-20s20 8.953125 20 20-8.953125 20-20 20-20-8.953125-20-20zm78 0c0-11.046875 8.953125-20 20-20s20 8.953125 20 20-8.953125 20-20 20-20-8.953125-20-20zm78 0c0-11.046875 8.953125-20 20-20s20 8.953125 20 20-8.953125 20-20 20-20-8.953125-20-20zm-234 0c0-11.046875 8.953125-20 20-20s20 8.953125 20 20-8.953125 20-20 20-20-8.953125-20-20zm313 0c0-11.046875 8.953125-20 20-20 33.085938 0 60 26.914062 60 60 0 11.046875-8.953125 20-20 20s-20-8.953125-20-20c0-11.027344-8.972656-20-20-20-11.046875 0-20-8.953125-20-20zm-432 40.035156c0-33.085937 26.914062-59.9999998 60-59.9999998 11.046875 0 20 8.9531248 20 19.9999998 0 11.042969-8.953125 20-20 20-11.027344 0-20 8.972656-20 20 0 11.042969-8.953125 20-20 20s-20-8.957031-20-20zm237 431.964844c0 11.046875-8.953125 20-20 20s-20-8.953125-20-20 8.953125-20 20-20 20 8.953125 20 20zm78 0c0 11.046875-8.953125 20-20 20s-20-8.953125-20-20 8.953125-20 20-20 20 8.953125 20 20zm78 0c0 11.046875-8.953125 20-20 20s-20-8.953125-20-20 8.953125-20 20-20 20 8.953125 20 20zm-234 0c0 11.046875-8.953125 20-20 20s-20-8.953125-20-20 8.953125-20 20-20 20 8.953125 20 20zm353-275c0 11.046875-8.953125 20-20 20s-20-8.953125-20-20 8.953125-20 20-20 20 8.953125 20 20zm0 78c0 11.046875-8.953125 20-20 20s-20-8.953125-20-20 8.953125-20 20-20 20 8.953125 20 20zm0 78c0 11.046875-8.953125 20-20 20s-20-8.953125-20-20 8.953125-20 20-20 20 8.953125 20 20zm0-234c0 11.046875-8.953125 20-20 20s-20-8.953125-20-20 8.953125-20 20-20 20 8.953125 20 20zm-512 78c0-11.046875 8.953125-20 20-20s20 8.953125 20 20-8.953125 20-20 20-20-8.953125-20-20zm0 78c0-11.046875 8.953125-20 20-20s20 8.953125 20 20-8.953125 20-20 20-20-8.953125-20-20zm0 78c0-11.046875 8.953125-20 20-20s20 8.953125 20 20-8.953125 20-20 20-20-8.953125-20-20zm0-234c0-11.046875 8.953125-20 20-20s20 8.953125 20 20-8.953125 20-20 20-20-8.953125-20-20zm512 312.964844c0 33.085937-26.914062 60-60 60-11.046875 0-20-8.953125-20-20 0-11.042969 8.953125-20 20-20 11.027344 0 20-8.972656 20-20 0-11.042969 8.953125-20 20-20s20 8.957031 20 20zm-432 40c0 11.046875-8.953125 20-20 20-33.085938 0-60-26.914063-60-60 0-11.042969 8.953125-20 20-20s20 8.957031 20 20c0 11.027344 8.972656 20 20 20 11.046875 0 20 8.957031 20 20zm0 0" fill="url(#a)"/></svg>