<svg height="1000pt" preserveAspectRatio="xMidYMid meet" viewBox="0 0 1000 1000" width="1000pt" xmlns="http://www.w3.org/2000/svg"><g transform="matrix(.1 0 0 -.1 0 1000)"><path d="m4605 8634c-732-81-1405-366-1959-830-149-125-392-372-510-519-413-515-679-1139-772-1810-21-159-30-612-15-783 99-1095 677-2080 1583-2695 168-115 291-186 482-277 891-430 1928-473 2861-119 174 66 473 214 624 309 255 160 444 312 661 529 469 470 793 1040 955 1681 196 777 129 1602-192 2340-201 464-518 905-887 1239-569 513-1231 820-2001 927-168 23-653 28-830 8zm-1675-2784v-100h-87c-101 0-140-17-170-72-15-29-18-70-23-318-6-310-8-323-66-369l-27-21 28-22c55-43 59-68 65-373 5-257 7-283 25-314 35-60 63-73 164-79l91-5v-95-95l-109 5c-94 5-119 10-174 35-110 52-177 141-197 264-5 35-10 163-10 285 0 213-1 222-23 255-12 19-37 40-55 48l-32 15v76 76l35 13c67 24 72 50 77 346 5 298 13 333 93 422 77 87 163 119 323 122l72 1zm4371 71c89-34 174-122 204-211 4-14 11-144 15-290 7-307 12-330 80-358l40-17v-77-76l-35-12c-26-9-41-23-57-53-21-39-23-59-28-312-6-308-9-322-94-413-70-75-142-103-278-110l-108-5v95 95l89 5c71 4 96 10 120 27 63 45 65 58 71 366 6 305 10 330 65 373l28 22-27 21c-58 46-60 59-66 369-5 248-8 289-23 318-30 55-69 72-169 72h-88v102 101l103-6c67-4 122-13 158-26zm-972-82c53-30 74-65 79-130 7-96-39-160-129-180-78-18-157 21-190 95-25 55-24 94 4 147 44 83 154 115 236 68zm-2088-433c81-27 158-82 201-146 64-94 68-125 68-557v-383h-145-145v51 51l-39-31c-95-75-239-112-359-91-137 23-230 88-284 198-30 60-33 75-33 157 0 78 4 97 28 147 40 82 120 152 204 178 153 47 361 12 456-78l27-26v91c0 101-8 130-42 163-53 50-97 65-198 64-109-1-174-21-256-79-27-19-52-35-55-35-4 0-29 41-57 91l-51 91 27 24c46 41 177 103 259 124 102 26 308 23 394-4zm1320 4c159-49 266-173 313-361 21-84 21-280 1-368-36-153-125-275-245-335-176-88-367-65-501 61l-49 46v-272-271h-145-145v750 750h145 145v-67-67l38 35c91 87 167 117 293 118 60 1 107-5 150-19zm829-545v-545h-145-145v545 545h145 145z"/><path d="m3906 4796c-156-58-150-251 8-296 64-18 170-9 226 20 76 38 80 44 80 126 0 70-1 73-35 102-19 17-51 36-72 42-64 19-164 22-207 6z"/><path d="m5243 5165c-56-17-128-60-148-87-12-18-15-58-15-219v-197l42-36c120-103 302-99 396 8 113 128 98 383-28 487-64 53-162 71-247 44z"/></g></svg>