<svg fill="none" height="48" viewBox="0 0 44 48" width="44" xmlns="http://www.w3.org/2000/svg"><path d="m43.72 17.9c-.0111-2.9351-1.0236-5.7784-2.87-8.06.6268-2.60851.4311-5.34705-.56-7.84-.0965-.2369-.2443-.44946-.4327-.62237-.1885-.17292-.413-.30189-.6573-.37763-.7-.24-3.35-.69-8.75 2.81-2.3225-.61293-4.7184-.90232-7.12-.86-2.4049-.04286-4.8042.24654-7.13.86-5.54-3.58-8.42-3-9-2.83-.24566.07912-.47077.2116-.65922.38795-.18844.17634-.33555.39218-.43078.63205-.99362 2.48483-1.19617 5.21577-.58 7.82-1.90676 2.2701-2.92321 5.156-2.86 8.12 0 11.06 6.33 14.4 12.13 15.58-.2977.7281-.5027 1.4908-.61 2.27-.0105.083-.0105.167 0 .25v3.06c-5.28.44-6.41-2.65-6.52-3-.02559-.0816-.05564-.1617-.09-.24-1.01982-2.0807-2.81503-3.6784-5-4.45-.44026-.1472-.92096-.1135-1.33635.0938-.415396.2072-.731455.5709-.87865 1.0112s-.113468.921.093759 1.3364c.207228.4153.570981.7314 1.011241.8786 1.21082.4374 2.22056 1.3014 2.84 2.43.7 2.27 3.56 5.86 9.86 5.46v2.88c0 .4641.1844.9092.5126 1.2374s.7733.5126 1.2374.5126.9092-.1844 1.2374-.5126.5126-.7733.5126-1.2374v-9.33c.1328-1.0189.5762-1.9721 1.27-2.73.243-.2275.4157-.5199.4975-.8426.0819-.3227.0694-.6621-.0359-.9779-.1053-.3159-.2989-.5949-.558-.8039-.2591-.2091-.5727-.3394-.9036-.3756-6.1-.71-11.74-2.72-11.74-12.57-.04055-1.189.16603-2.3734.60667-3.4785.44065-1.105 1.10577-2.1067 1.95333-2.9415.22793-.2453.38541-.5476.45581-.875s.05112-.66767-.05581-.985c-.58911-1.71185-.62758-3.56518-.11-5.3 2.1472.48479 4.1637 1.42988 5.91 2.77.2244.14851.4794.24451.746.28087.2666.03635.538.01213.794-.07087 2.2219-.67629 4.5382-.99031 6.86-.93 2.3185-.06046 4.6316.25358 6.85.93.2559.08373.5274.10834.7941.07197.2668-.03638.5218-.13279.7459-.28197 1.682-1.28877 3.6073-2.22418 5.66-2.75.5098 1.75402.4644 3.62281-.13 5.35-.0979.28822-.118.5972-.0583.8957.0597.2984.1971.5759.3983.8043 1.6555 1.7676 2.5932 4.0885 2.63 6.51 0 9.83-5.93 11.87-11.74 12.57-.3478.0387-.6759.1814-.9414.4094-.2655.2281-.4561.5309-.5468.8689-.0907.3381-.0774.6956.0383 1.0259.1156.3304.3282.6181.6099.8258.62.47 1.34 1.79 1.34 4v7.92c0 .4641.1844.9093.5126 1.2374.3282.3282.7733.5126 1.2374.5126s.9092-.1844 1.2374-.5126c.3282-.3281.5126-.7733.5126-1.2374v-7.92c.0183-1.3926-.2365-2.7754-.75-4.07 4.7-1 11.96-4.09 11.96-15.6z" fill="#000"/></svg>