<svg fill="none" height="88" viewBox="0 0 98 88" width="98" xmlns="http://www.w3.org/2000/svg"><g fill="#000"><path d="m53.492 72.07h-40.664c-.8633 0-1.5586.6992-1.5586 1.5586 0 .8633.6992 1.5586 1.5586 1.5586h40.664c.8633 0 1.5586-.6992 1.5586-1.5586s-.6992-1.5586-1.5586-1.5586z"/><path d="m31.426 65.391c.8633 0 1.5586-.6953 1.5586-1.5586v-21.75c0-.8633-.6992-1.5586-1.5586-1.5586h-20.156c-.8594 0-1.5586.6992-1.5586 1.5586v21.75c0 .8633.6992 1.5586 1.5586 1.5586zm-18.598-21.746h17.035v18.629h-17.035z"/><path d="m11.27 33.668h20.156c.8633 0 1.5586-.6953 1.5586-1.5586v-21.75c0-.86328-.6992-1.5586-1.5586-1.5586l-20.156-.00391c-.8594 0-1.5586.69922-1.5586 1.55861v21.75c-.00391.8672.6953 1.5625 1.5586 1.5625zm1.5586-21.75h17.035v18.629h-17.035z"/><path d="m96.062 80.078-10.285-10.43c-.8203-.832-1.9648-1.3125-3.1328-1.3125-.6172 0-1.2109.1328-1.7617.375l-4.6836-4.7539c2.3203-2.875 3.7148-6.5469 3.7148-10.539 0-8.4258-6.1992-15.41-14.223-16.527v-18.781c0-.4336-.1797-.8477-.5-1.1445l-17.484-16.195006-.043-.042969c-.0234-.019531-.0468-.035156-.0703-.054687-.0469-.039063-.0937-.078125-.1445-.11328-.0352-.023438-.0703-.039063-.1055-.058594-.0508-.027344-.1015-.058594-.1562-.078125-.043-.015625-.0899-.027344-.1328-.039063-.0508-.015624-.0977-.03125-.1485-.042968-.0898-.019532-.1836-.027344-.2773-.027344-.0078 0-.0156-.003906-.0235-.003906h-38.49996c-4.1211 0-7.4766 3.394502-7.4766 7.562502v69.77304c0 4.1719 3.3555 7.5625 7.4766 7.5625h50.10496c4.1211 0 7.4766-3.3906 7.4766-7.5625v-7.6992c3.1484-.4375 6.0117-1.7773 8.3359-3.7539l4.6445 4.7109c-.2812.6132-.4335 1.2891-.4218 1.9766.0156 1.1758.4765 2.2617 1.2969 3.0586l10.27 10.418c.8515.8593 1.9648 1.332 3.1484 1.332h.0586c1.1758-.0157 2.2656-.5 3.0469-1.332.8554-.8711 1.3203-2.0156 1.3047-3.2227-.0157-1.1758-.4924-2.2698-1.3088-3.055zm-19.27-26.66c0 7.2148-5.5703 13.129-12.574 13.543-.0312-.0039-.0586-.0078-.0898-.0078-.0743 0-.1485.0117-.2188.0234-.1562.0078-.3125.0117-.4727.0117-3.9766 0-7.5508-1.7773-9.9961-4.5859v-.1289h-.1093c-2.0234-2.3789-3.2461-5.4727-3.2461-8.8516 0-7.4805 5.9922-13.566 13.355-13.566.1523 0 .3007.0078.4531.0117.0781.0118.1562.0235.2383.0235.0351 0 .0664-.0078.0976-.0117 6.9961.4179 12.5628 6.3277 12.5628 13.5386zm-28.629-47.97301 11.984 11.10501h-9.9023c-1.1484 0-2.082-.957-2.082-2.1367zm10.047 76.64501h-50.105c-2.4023 0-4.3555-1.9922-4.3555-4.4414v-69.77701c0-2.4492 1.9531-4.4414 4.3555-4.4414h36.938v10.98001c0 2.8984 2.3359 5.2578 5.2031 5.2578h12.32v17.086c-4.3438.2305-8.2422 2.1719-11.059 5.168h-11.309c-.8633 0-1.5586.6992-1.5586 1.5586 0 .8633.6992 1.5586 1.5586 1.5586h8.9922c-1.1523 2.0039-1.9102 4.2656-2.1523 6.6797h-6.832c-.8633 0-1.5586.6992-1.5586 1.5586 0 .8633.6992 1.5586 1.5586 1.5586h6.8125c.2266 2.7109 1.0977 5.2383 2.457 7.4297h-9.2695c-.8633 0-1.5586.6992-1.5586 1.5586 0 .8633.6992 1.5586 1.5586 1.5586h11.766c2.7734 2.7227 6.4844 4.4727 10.59 4.6914v7.5625c.0039 2.4609-1.9496 4.4531-4.352 4.4531zm35.605 2.1094c-.2187.2344-.5195.3672-.8359.3711-.3555-.0196-.6797-.1406-.9414-.4024l-10.2891-10.434-.0312-.0312c-.3008-.2891-.3516-.668-.3555-.8672-.0039-.3164.0977-.6172.2735-.8555.0547-.039.1093-.0781.1562-.1289.0508-.0468.0899-.1015.1289-.1562.2618-.1875.5274-.2422.7227-.2422.3437 0 .668.1367.9141.3867l10.316 10.461c.2382.2305.371.5391.3789.8789.0039.3672-.1403.7191-.4372 1.0199z"/></g></svg>