<svg fill="none" height="25" viewBox="0 0 28 25" width="28" xmlns="http://www.w3.org/2000/svg"><g fill="#000"><path d="m14 5.99999c-1.24-.00124-2.4361.45829-3.3563 1.28938-.92023.83109-1.4988 1.97445-1.62341 3.20813-.12461 1.2337.21361 2.4696.94902 3.468.73539.9983 1.81549 1.6878 3.03069 1.9345v8.1c0 .2652.1054.5196.2929.7071s.4419.2929.7071.2929.5196-.1054.7071-.2929.2929-.4419.2929-.7071v-8.1c1.2152-.2467 2.2953-.9362 3.0307-1.9345.7354-.9984 1.0736-2.2343.949-3.468-.1246-1.23368-.7032-2.37704-1.6234-3.20813s-2.1163-1.29062-3.3563-1.28938zm0 8.00001c-.5933 0-1.1734-.176-1.6667-.5056-.4934-.3296-.8779-.7982-1.1049-1.3464-.2271-.5481-.2865-1.1513-.1708-1.7333.1158-.58192.4015-1.11647.8211-1.53603.4195-.41955.9541-.70528 1.536-.82103.582-.11576 1.1852-.05635 1.7334.17072.5481.22706 1.0167.61158 1.3463 1.10493.3297.49334.5056 1.07341.5056 1.66671 0 .7956-.3161 1.5587-.8787 2.1213s-1.3256.8787-2.1213.8787z"/><path d="m8.34 3.93c-.18736-.18625-.44081-.29079-.705-.29079s-.51764.10454-.705.29079c-1.87471 1.87528-2.92786 4.41836-2.92786 7.07 0 2.6516 1.05315 5.1947 2.92786 7.07.18736.1862.44081.2908.705.2908s.51764-.1046.705-.2908c.18625-.1874.29079-.4408.29079-.705s-.10454-.5176-.29079-.705c-.74381-.743-1.33388-1.6253-1.73648-2.5965-.40259-.9712-.60981-2.0122-.60981-3.0635 0-1.05133.20722-2.09234.60981-3.06352.4026-.97119.99267-1.8535 1.73648-2.59648.18625-.18736.29079-.44082.29079-.705 0-.26419-.10454-.51764-.29079-.705z"/><path d="m21.07 3.93c-.0896-.10469-.2-.18971-.324-.24973-.1241-.06002-.2592-.09375-.3969-.09907-.1378-.00532-.2751.01788-.4034.06816-.1283.05027-.2449.12653-.3423.22399-.0975.09745-.1738.214-.224.34232-.0503.12833-.0735.26566-.0682.40338s.0391.27285.0991.39692c.06.12406.145.23438.2497.32403.7438.74298 1.3339 1.62529 1.7365 2.59647.4026.97119.6098 2.0122.6098 3.06353 0 1.0513-.2072 2.0923-.6098 3.0635s-.9927 1.8535-1.7365 2.5965c-.1862.1874-.2908.4408-.2908.705s.1046.5176.2908.705c.1874.1862.4408.2908.705.2908s.5176-.1046.705-.2908c1.8747-1.8753 2.9279-4.4184 2.9279-7.07 0-2.65165-1.0532-5.19473-2.9279-7.07z"/><path d="m2 11c-.00124-1.57633.30811-3.13746.91037-4.5942.60225-1.45674 1.48562-2.78055 2.59963-3.8958.18625-.18737.2908-.44082.2908-.705 0-.26419-.10455-.51764-.2908-.705-.18736-.186254-.44081-.290796-.705-.290796-.26418 0-.51763.104542-.705.290796-1.30017 1.30004-2.33153 2.84345-3.03518 4.5421-.70366 1.69865-1.06582708 3.51927-1.06582708 5.3579 0 1.8386.36216708 3.6592 1.06582708 5.3579.70365 1.6986 1.73501 3.2421 3.03518 4.5421.09344.0927.20426.166.3261.2158.12183.0497.2523.075.3839.0742.26234-.0011.51374-.1053.7-.29.18625-.1874.2908-.4408.2908-.705s-.10455-.5176-.2908-.705c-1.11401-1.1153-1.99738-2.4391-2.59963-3.8958-.60226-1.4567-.91161-3.0179-.91037-4.5942z"/><path d="m23.9 1.1c-.1874-.186254-.4408-.290796-.705-.290796s-.5176.104542-.705.290796c-.1862.18736-.2908.44081-.2908.705 0 .26418.1046.51763.2908.705 1.1187 1.11484 2.0064 2.43955 2.612 3.89817.6057 1.45862.9175 3.02246.9175 4.60183 0 1.5794-.3118 3.1432-.9175 4.6018-.6056 1.4586-1.4933 2.7834-2.612 3.8982-.1862.1874-.2908.4408-.2908.705s.1046.5176.2908.705c.1863.1847.4377.2889.7.29.1316.0008.2621-.0245.3839-.0742.1218-.0498.2327-.1231.3261-.2158 1.3002-1.3 2.3315-2.8435 3.0352-4.5421.7036-1.6987 1.0658-3.5193 1.0658-5.3579 0-1.83863-.3622-3.65925-1.0658-5.3579-.7037-1.69865-1.735-3.24206-3.0352-4.5421z"/></g></svg>