<svg fill="none" height="88" viewBox="0 0 78 88" width="78" xmlns="http://www.w3.org/2000/svg"><g clip-rule="evenodd" fill="#000" fill-rule="evenodd"><path d="m7.75676 8.46977c1.4016-.019 2.80244.34261 4.09384 1.09381 0 .0005.03-.0006.031 0l26.3126 15.25002c0-1.3009.3422-2.6143 1.0312-3.8125 1.4114-2.4593 3.9808-3.8359 6.6562-3.875 1.402-.021 2.8327.3147 4.125 1.0625l6.0938 3.5312c4.7231 2.738 12.4012 6.968 17.375 13.6875 4.9296 6.6601 6.8133 16.0558.3125 27.5938-.019.053-.039.1051-.062.1562-.031.054-.062.102-.094.1563-.038.065-.08.1274-.125.1875l-7.5313 13.125c-4.6777 8.1452-9.8449 11.3914-15 11.375-5.0376-.016-9.4917-2.7754-13.75-5.25-.1085-.043-.2132-.095-.3125-.1563-.053-.029-.1057-.06-.1563-.094l-24.8124-14.4063c-3.75964-2.177-5.16224-7.0003-3.00004-10.75 0-.0006 0-.031 0-.031.8412-1.4609 2.11764-2.5163 3.56244-3.1563-1.7563-2.4441-2.0725-5.7885-.5-8.5312.9702-1.6918 2.5195-2.8548 4.25-3.4375-1.1821-2.3001-1.238-5.123.125-7.5.6905-1.2042 1.6849-2.1271 2.8126-2.7814l-15.12504-8.7811h-.03101c-3.758695-2.1764-5.12869-7.032-2.96869-10.7814 1.4117-2.45786 4.0111-3.83933 6.6871-3.87483zm-.1562 4.00003c-1.2521.07-2.4138.7125-3.0625 1.8438v.031c-1.044 1.8093-.38141 4.2057 1.5313 5.3125l21.12504 12.25 9.5937 5.5625c2.4317 1.4039.3491 4.8239-1.9982 3.4687l-9.625-5.5625c-1.9154-1.1151-4.2745-.4976-5.3125 1.3125-1.039 1.812-.3798 4.2066 1.5312 5.3125l1.4376.8438 8.1562 4.75c2.7755 1.6024.4479 4.8508-2 3.4374l-8.1562-4.7187c-.01.0001-.021.0001-.031 0-1.9153-1.1151-4.2747-.4975-5.3125 1.3125-1.0396 1.8129-.3861 4.1943 1.5312 5.3125l2.6876 1.5625c.021.012.042.019.062.031l5.4063 3.1563c2.6301 1.5185.318 4.807-2 3.4687l-5.4063-3.1562c-1.9144-1.1064-4.3084-.4865-5.3437 1.3125-1.044 1.8093-.3815 4.2369 1.5313 5.3437l24.875 14.4063c.032.02.063.041.094.062 4.3843 2.5387 8.4879 4.8637 12.0625 4.875 3.5747.011 7.2261-1.8782 11.5312-9.375l7.5-13c.036-.086.078-.1697.125-.25l.125-.2188c.029-.053.06-.1056.094-.1562 5.896-10.4684 4.1216-17.5237-.094-23.2187-4.2596-5.7547-11.4061-9.8222-16.1874-12.5939l-6.0626-3.5311c-1.9148-1.1064-4.275-.4658-5.3124 1.3436-.999 1.7359-.4463 4.035 1.3124 5.1875l.375.2189 9.1876 5.3125c.9081.5236 1.258 1.8261.7344 2.7343-.5236.9081-1.8263 1.2579-2.7344.7343l-9.1876-5.3125-.062-.031c-.043-.03-.085-.061-.125-.094l-32.34385-18.75c-.7182-.4181-1.4987-.5734-2.25-.5311z"/><path d="m36.4756.00111523c.3789.03794297.7391.18402077 1.0381.42102077s.5242.554993.649.916444c.1249.36145.1442.75124.0557 1.12335-.0886.37212-.2813.71105-.5553.97669l-3.25 3.28118h38.5313c.263-.00057.5235.05075.7667.15101.2431.10025.4641.24745.6503.43322.1862.18578.3339.40642.4347.64936.1008.24293.1527.5034.1527.76641 0 .26302-.0519.52342-.1527.76636s-.2485.46364-.4347.64944c-.1862.1857-.4072.333-.6503.4332-.2432.1003-.5037.1516-.7667.151h-38.5313l3.25 3.2813c.2173.1772.3951.3983.5219.6489.1267.2507.1996.5254.2138.8062.0141.2808-.0306.5615-.1314.8238s-.2554.5003-.4538.6987c-.1983.1983-.436.3525-.6976.4526-.2615.1001-.5411.1437-.8205.1282-.2795-.0156-.5525-.09-.8014-.2185-.249-.1285-.4682-.3082-.6435-.5274l-6.6562-6.6875c-.1866-.18629-.3347-.40788-.4358-.6519-.101-.24403-.153-.50572-.153-.77002s.052-.52599.153-.77002c.1011-.24403.2492-.46555.4358-.65186l6.6562-6.687496c.1879-.190541.4119-.341257.6588-.443237.2469-.1019797.5117-.1531375.7787-.15045177.0624-.00295182.125-.00295182.1875 0z"/></g></svg>