<?xml version="1.0" encoding="UTF-8"?>
<svg version="1.1" xmlns="http://www.w3.org/2000/svg" width="128" height="128">
<path d="M0 0 C0.94372971 -0.00671722 1.88745941 -0.01343445 2.85978699 -0.02035522 C5.97583297 -0.03933371 9.09166351 -0.04325946 12.20776367 -0.04541016 C14.37863757 -0.0518385 16.54951061 -0.05856689 18.72038269 -0.06558228 C23.27064014 -0.0775549 27.82082166 -0.08126314 32.37109375 -0.08007812 C38.19173138 -0.07987501 44.01188034 -0.10716945 49.83240223 -0.14162254 C54.31664754 -0.16389932 58.80077544 -0.16791541 63.28507042 -0.16685867 C65.43040335 -0.16921375 67.57573955 -0.17803195 69.72101784 -0.19352341 C72.72711669 -0.21319731 75.73216418 -0.20733933 78.73828125 -0.1953125 C79.61803619 -0.20655151 80.49779114 -0.21779053 81.40420532 -0.22937012 C88.19587861 -0.16058929 93.48004397 1.57006695 98.62182617 6.10693359 C99.07686523 6.68314453 99.5319043 7.25935547 100.00073242 7.85302734 C100.47381836 8.43181641 100.9469043 9.01060547 101.43432617 9.60693359 C103.43965868 12.59758518 103.69405314 15.23765008 103.72436523 18.73022461 C103.73397278 19.62447647 103.74358032 20.51872833 103.753479 21.44007874 C103.75985382 22.88392189 103.75985382 22.88392189 103.76635742 24.35693359 C103.7720575 25.34676743 103.77775757 26.33660126 103.78363037 27.35643005 C103.79307508 29.44862805 103.79961225 31.54084088 103.8034668 33.63305664 C103.81320507 36.84401022 103.84424671 40.0543325 103.87573242 43.26513672 C103.88225925 45.29573187 103.88751098 47.3263316 103.89135742 49.35693359 C103.90370422 50.32151993 103.91605103 51.28610626 103.92877197 52.27992249 C103.92577087 53.17102219 103.92276978 54.06212189 103.91967773 54.98022461 C103.92514618 56.1591201 103.92514618 56.1591201 103.9307251 57.36183167 C103.80945251 57.99830124 103.68817993 58.63477081 103.56323242 59.29052734 C100.56323242 61.29052734 100.56323242 61.29052734 97.43823242 60.97802734 C94.56323242 60.29052734 94.56323242 60.29052734 93.56323242 59.29052734 C93.42761118 56.55082557 93.3525901 53.83283462 93.31713867 51.09130859 C93.28418036 49.39013196 93.25096907 47.68896021 93.2175293 45.98779297 C93.17024187 43.29976002 93.12586029 40.611744 93.08642578 37.92358398 C93.04652593 35.33343863 92.9950029 32.74371735 92.94213867 30.15380859 C92.93372452 29.35670975 92.92531036 28.5596109 92.91664124 27.73835754 C92.75643863 20.11464308 92.75643863 20.11464308 89.04931641 13.65118408 C85.29269057 11.59514805 81.77760223 11.86431124 77.55957031 11.88647461 C76.65018204 11.87961136 75.74079376 11.87274811 74.80384827 11.86567688 C71.79770291 11.8473753 68.79207779 11.85125124 65.78588867 11.85693359 C63.69607879 11.85237335 61.60627042 11.84706825 59.51646423 11.84104919 C55.13591419 11.83211144 50.7555464 11.83454876 46.375 11.84448242 C40.76138774 11.85597177 35.14840453 11.83576424 29.53487492 11.80656528 C25.21886702 11.78821874 20.90301029 11.7884927 16.58697319 11.7942028 C14.51731929 11.79435621 12.44765526 11.78829571 10.37803841 11.77591133 C7.48372065 11.76103288 4.5905703 11.77165552 1.69628906 11.78881836 C0.8415802 11.77915039 -0.01312866 11.76948242 -0.89373779 11.75952148 C-4.81153318 11.8081667 -6.98102319 12.03012939 -10.44508362 14.00938416 C-13.91478497 17.98335079 -13.56371141 22.07623967 -13.59790039 27.16308594 C-13.61231171 28.90046524 -13.61231171 28.90046524 -13.62701416 30.67294312 C-13.63126404 31.91573029 -13.63551392 33.15851746 -13.63989258 34.43896484 C-13.64559265 35.72485504 -13.65129272 37.01074524 -13.65716553 38.33560181 C-13.66764409 41.05397942 -13.67350749 43.77232772 -13.67700195 46.49072266 C-13.68248468 49.95956517 -13.70652077 53.42801481 -13.73497391 56.89673424 C-13.758168 60.22330307 -13.76005382 63.5498194 -13.76489258 66.87646484 C-13.77723938 68.11520355 -13.78958618 69.35394226 -13.80230713 70.63021851 C-13.78465711 79.38892609 -13.78465711 79.38892609 -10.43676758 87.29052734 C-6.65028067 90.10453483 -2.12190859 89.578504 2.38330078 89.56518555 C3.71812248 89.57285194 3.71812248 89.57285194 5.07991028 89.58067322 C8.02103402 89.59457138 10.9619235 89.5936123 13.90307617 89.59130859 C15.94804471 89.59519534 17.99301244 89.59952996 20.03797913 89.60429382 C24.32433692 89.61175647 28.61061235 89.61146437 32.89697266 89.60620117 C38.38941033 89.60040585 43.88151086 89.61733894 49.37389278 89.64054585 C53.59723379 89.65527851 57.82049351 89.65615552 62.04385567 89.65303612 C64.06885 89.65354954 66.09384886 89.65879124 68.11881828 89.66884804 C70.95069151 89.68118624 73.78190681 89.67443645 76.61376953 89.6628418 C77.44977692 89.67048553 78.2857843 89.67812927 79.14712524 89.68600464 C83.76585424 89.6442123 86.82172798 89.30338308 90.56323242 86.29052734 C91.96590362 83.86873423 91.96590362 83.86873423 92.81323242 81.16552734 C94.52287368 76.33088609 94.52287368 76.33088609 95.56323242 75.29052734 C98.50073242 75.10302734 98.50073242 75.10302734 101.56323242 75.29052734 C104.0229702 77.75026512 103.88624917 78.58352119 103.93823242 81.97802734 C103.80216064 87.88014094 102.32642225 91.44406331 98.13745117 95.75927734 C92.77172426 100.52881237 88.34991802 101.5439157 81.29370117 101.48583984 C80.61269852 101.48300995 79.93169586 101.48018005 79.23005676 101.4772644 C77.07009787 101.46613259 74.91056448 101.44104191 72.75073242 101.41552734 C71.28003532 101.40548846 69.80933166 101.3963642 68.33862305 101.38818359 C64.74668957 101.36621648 61.15500258 101.33173554 57.56323242 101.29052734 C57.56323242 103.93052734 57.56323242 106.57052734 57.56323242 109.29052734 C58.68342773 109.26732422 59.80362305 109.24412109 60.95776367 109.22021484 C62.43041326 109.20145498 63.90307005 109.18325501 65.37573242 109.16552734 C66.1137207 109.14876953 66.85170898 109.13201172 67.61206055 109.11474609 C71.47569668 109.07978106 73.2722691 109.0965518 76.56323242 111.29052734 C77.43823242 113.66552734 77.43823242 113.66552734 77.56323242 116.29052734 C76.4909668 118.42224121 76.4909668 118.42224121 74.56323242 120.29052734 C71.56518555 120.79846191 71.56518555 120.79846191 67.84448242 120.80810547 C67.16611328 120.81511475 66.48774414 120.82212402 65.78881836 120.8293457 C63.54653991 120.84695058 61.30552368 120.83529565 59.06323242 120.82177734 C57.50528725 120.82447158 55.94734371 120.82835343 54.3894043 120.83337402 C51.12426748 120.83927239 47.85956836 120.83069574 44.59448242 120.81201172 C40.40756391 120.78922134 36.22167092 120.8023427 32.03479004 120.82630157 C28.817711 120.84075078 25.6008754 120.83615774 22.38378906 120.82579041 C20.84000528 120.82312066 19.29619944 120.82640162 17.75244141 120.83570862 C15.59502567 120.84586058 13.43927407 120.83039577 11.28198242 120.80810547 C10.05415039 120.8049231 8.82631836 120.80174072 7.5612793 120.79846191 C4.56323242 120.29052734 4.56323242 120.29052734 2.6003418 118.45739746 C1.56323242 116.29052734 1.56323242 116.29052734 2.25073242 113.10302734 C3.56323242 110.29052734 3.56323242 110.29052734 5.56323242 109.29052734 C8.2808335 109.21870913 10.9718263 109.19753228 13.68823242 109.22802734 C14.44233398 109.23253906 15.19643555 109.23705078 15.97338867 109.24169922 C17.83670369 109.25349235 19.69997797 109.27142792 21.56323242 109.29052734 C21.56323242 106.65052734 21.56323242 104.01052734 21.56323242 101.29052734 C20.66604492 101.31147461 19.76885742 101.33242187 18.84448242 101.35400391 C15.48223384 101.4226035 12.12074007 101.47253029 8.75805664 101.51025391 C7.30904325 101.5302403 5.86010917 101.55743932 4.41137695 101.59228516 C-4.83606921 101.80897239 -12.16044268 101.94610813 -19.49536133 95.47412109 C-19.95040039 94.89791016 -20.40543945 94.32169922 -20.87426758 93.72802734 C-21.34735352 93.14923828 -21.82043945 92.57044922 -22.30786133 91.97412109 C-24.81024262 88.24219605 -24.57451955 84.6999174 -24.59790039 80.34399414 C-24.6028653 79.64118317 -24.6078302 78.93837219 -24.61294556 78.21426392 C-24.62754882 75.88941467 -24.63436644 73.56463367 -24.63989258 71.23974609 C-24.64564598 69.62172952 -24.65140369 68.00371296 -24.65716553 66.38569641 C-24.66767059 62.99207237 -24.67351635 59.59847199 -24.67700195 56.20483398 C-24.68248263 51.86372954 -24.70650345 47.52293938 -24.73497391 43.1819334 C-24.75363105 39.83870033 -24.75880754 36.49554246 -24.76033783 33.15226173 C-24.76335845 31.55232845 -24.77136703 29.95239631 -24.78452301 28.35251427 C-24.80164675 26.10985032 -24.79968815 23.86794758 -24.79321289 21.62524414 C-24.79685852 20.35077927 -24.80050415 19.07631439 -24.80426025 17.76322937 C-24.23735184 12.40610497 -22.21426917 8.46023454 -18.06176758 5.04052734 C-17.21485352 4.32123047 -17.21485352 4.32123047 -16.35083008 3.58740234 C-11.05839344 0.0015065 -6.18523962 -0.00632869 0 0 Z M32.56323242 101.29052734 C32.56323242 103.93052734 32.56323242 106.57052734 32.56323242 109.29052734 C37.18323242 109.29052734 41.80323242 109.29052734 46.56323242 109.29052734 C46.56323242 106.65052734 46.56323242 104.01052734 46.56323242 101.29052734 C41.94323242 101.29052734 37.32323242 101.29052734 32.56323242 101.29052734 Z " fill="#2FC7FE" transform="translate(24.436767578125,3.70947265625)"/>
<path d="M0 0 C8.47948783 5.18662006 14.94322316 14.6687865 18 24 C19.43505308 30.69691436 18.83447365 36.22218219 17.1875 42.8125 C15.85947443 47.58752425 15.85947443 47.58752425 17.1328125 52.078125 C18.77475458 53.58128649 18.77475458 53.58128649 20.55078125 54.80078125 C22 56 22 56 22.5 59.25 C22 62 22 62 20 64 C15.53277087 64.33090586 12.91823207 63.95911604 9 62 C6.66796188 61.9222654 4.33160941 61.91032272 2 62 C1.855625 62.804375 1.71125 63.60875 1.5625 64.4375 C1 67 1 67 0 68 C-2.9375 68.1875 -2.9375 68.1875 -6 68 C-6.66 67.34 -7.32 66.68 -8 66 C-8 64.68 -8 63.36 -8 62 C-9.45792884 61.94600264 -10.91642712 61.90720823 -12.375 61.875 C-13.18710937 61.85179687 -13.99921875 61.82859375 -14.8359375 61.8046875 C-17.21342243 61.78629949 -17.21342243 61.78629949 -19 64 C-22.5 64.25 -22.5 64.25 -26 64 C-28 62 -28 62 -28.5 59.25 C-28 56 -28 56 -26.55078125 54.80078125 C-25.97714844 54.39214844 -25.40351562 53.98351562 -24.8125 53.5625 C-23.01603568 52.14493435 -23.01603568 52.14493435 -22 50 C-22.28978359 46.83467151 -22.92270413 43.89221437 -23.67871094 40.80957031 C-26.09957779 30.84845822 -24.59298283 23.7622956 -19.74609375 14.80078125 C-15.1920965 7.49604741 -9.33976414 -0.92115027 0 0 Z M-4 13 C-4.66 14.32 -5.32 15.64 -6 17 C-4.02 17 -2.04 17 0 17 C-0.66 15.68 -1.32 14.36 -2 13 C-2.66 13 -3.32 13 -4 13 Z M-13 28 C-14.06172871 33.50762201 -14.06172871 33.50762201 -13.00390625 38.3046875 C-12.66069336 39.42617188 -12.66069336 39.42617188 -12.31054688 40.5703125 C-12.06369141 41.33085938 -11.81683594 42.09140625 -11.5625 42.875 C-11.31951172 43.65875 -11.07652344 44.4425 -10.82617188 45.25 C-10.2290057 47.17029907 -9.61607713 49.08568421 -9 51 C-5.04 51 -1.08 51 3 51 C3.87024374 48.29592085 4.7213415 45.58812663 5.5625 42.875 C5.80935547 42.11445312 6.05621094 41.35390625 6.31054688 40.5703125 C6.53935547 39.82265625 6.76816406 39.075 7.00390625 38.3046875 C7.21861572 37.62390137 7.4333252 36.94311523 7.65454102 36.24169922 C8.21655606 33.37091756 8.21655606 33.37091756 7 28 C0.4 28 -6.2 28 -13 28 Z " fill="#36C1FE" transform="translate(67,21)"/>
<path d="M0 0 C3 0.25 3 0.25 5 2.25 C5.25 5.25 5.25 5.25 5 8.25 C3 10.25 3 10.25 0 10.5 C-3 10.25 -3 10.25 -5 8.25 C-5.25 5.25 -5.25 5.25 -5 2.25 C-3 0.25 -3 0.25 0 0 Z " fill="#37C1FE" transform="translate(64,51.75)"/>
</svg>
