<?xml version="1.0" encoding="UTF-8"?>
<svg version="1.1" xmlns="http://www.w3.org/2000/svg" width="128" height="128">
<path d="M0 0 C1.66203712 -0.01913956 1.66203712 -0.01913956 3.35765076 -0.03866577 C5.15300011 -0.04200424 5.15300011 -0.04200424 6.98461914 -0.04541016 C8.21386612 -0.05206696 9.4431131 -0.05872375 10.70960999 -0.06558228 C13.31127422 -0.07571508 15.91296449 -0.0803991 18.51464844 -0.08007812 C22.50038648 -0.07983485 26.48539089 -0.12076891 30.47094727 -0.15869141 C32.99633409 -0.16455925 35.5217262 -0.16852886 38.04711914 -0.17041016 C39.24199448 -0.18478119 40.43686981 -0.19915222 41.66795349 -0.21395874 C43.33471886 -0.20472885 43.33471886 -0.20472885 45.03515625 -0.1953125 C46.01205917 -0.19816254 46.9889621 -0.20101257 47.99546814 -0.20394897 C51.31324303 0.4302541 52.49710019 1.68995093 54.58227539 4.29052734 C55.38153507 7.3718112 55.22967851 10.18187614 54.58227539 13.29052734 C52.39477539 16.04052734 52.39477539 16.04052734 49.58227539 18.29052734 C48.69540039 19.21865234 47.80852539 20.14677734 46.89477539 21.10302734 C44.58227539 23.29052734 44.58227539 23.29052734 42.58227539 23.29052734 C43.60321289 24.28052734 43.60321289 24.28052734 44.64477539 25.29052734 C45.62451083 26.2899701 46.60359838 27.29004812 47.58227539 28.29052734 C48.20618164 28.89509766 48.83008789 29.49966797 49.47290039 30.12255859 C55.04502188 35.86456183 55.04502188 35.86456183 55.33227539 40.47802734 C54.40722722 45.18035556 53.39257571 46.42465262 49.58227539 49.29052734 C46.37196067 49.98500281 43.25001687 49.92123036 39.97680664 49.84912109 C39.05639084 49.8467897 38.13597504 49.84445831 37.18766785 49.84205627 C35.24855234 49.83233699 33.30946446 49.8105918 31.37060547 49.77758789 C28.39451349 49.72802298 25.42007167 49.71609717 22.44360352 49.71044922 C20.55882021 49.69636896 18.6740513 49.68016662 16.78930664 49.66162109 C15.89661575 49.65625839 15.00392487 49.65089569 14.08418274 49.64537048 C13.25960068 49.62938309 12.43501862 49.61339569 11.58544922 49.59692383 C10.85884598 49.58628403 10.13224274 49.57564423 9.38362122 49.56468201 C7.58227539 49.29052734 7.58227539 49.29052734 5.58227539 47.29052734 C5.26977539 43.79052734 5.26977539 43.79052734 5.58227539 40.29052734 C9.21483557 37.86882056 11.10806234 37.98607704 15.43774414 37.87646484 C16.09938065 37.85709869 16.76101715 37.83773254 17.44270325 37.81777954 C19.55159703 37.75810048 21.66054576 37.71164647 23.76977539 37.66552734 C25.20143954 37.62733669 26.63308098 37.58828431 28.06469727 37.54833984 C31.57034851 37.45240962 35.07616984 37.36833537 38.58227539 37.29052734 C37.49946289 36.31212891 37.49946289 36.31212891 36.39477539 35.31396484 C35.46665039 34.43998047 34.53852539 33.56599609 33.58227539 32.66552734 C32.65415039 31.80701172 31.72602539 30.94849609 30.76977539 30.06396484 C28.58227539 27.29052734 28.58227539 27.29052734 28.18286133 24.08032227 C28.65414327 20.78855038 29.39220533 19.80216611 31.83227539 17.60302734 C32.43555664 17.04228516 33.03883789 16.48154297 33.66040039 15.90380859 C35.58393145 14.2891372 37.56809387 12.78965388 39.58227539 11.29052734 C34.08301115 11.26582265 28.58377917 11.24766511 23.08447266 11.2355957 C21.21337318 11.23056456 19.34227764 11.22373899 17.47119141 11.21508789 C14.78294911 11.20296906 12.09475876 11.19728687 9.40649414 11.19287109 C8.5689006 11.18770981 7.73130707 11.18254852 6.86833191 11.17723083 C3.51851797 11.1769067 0.78281083 11.2236822 -2.41772461 12.29052734 C-3.62722833 15.9190385 -3.57802715 19.25645547 -3.59130859 23.03491211 C-3.59799561 23.82217682 -3.60468262 24.60944153 -3.61157227 25.42056274 C-3.62561745 27.1295117 -3.6375132 28.83847936 -3.64752007 30.54745674 C-3.66392387 33.24931296 -3.68715928 35.9510297 -3.7124176 38.65281677 C-3.78322649 46.3343106 -3.84343594 54.01585992 -3.89453125 61.69750977 C-3.92625825 66.3953865 -3.96751191 71.0931005 -4.01472664 75.79084587 C-4.03077819 77.58383202 -4.04308511 79.37685564 -4.05163383 81.16989326 C-4.06373905 83.67194357 -4.08786605 86.17360832 -4.11474609 88.67553711 C-4.11533524 89.42104324 -4.11592438 90.16654938 -4.11653137 90.93464661 C-4.18982294 96.06262567 -4.18982294 96.06262567 -6.41772461 98.29052734 C-9.35522461 98.72802734 -9.35522461 98.72802734 -12.41772461 98.29052734 C-15.64330528 94.32212752 -15.84383636 90.60800374 -15.79003906 85.68969727 C-15.79368973 84.94103897 -15.79734039 84.19238068 -15.80110168 83.42103577 C-15.80918547 80.95412269 -15.79561163 78.4878712 -15.78100586 76.02099609 C-15.78048683 74.29852804 -15.7810062 72.57605939 -15.78251648 70.85359192 C-15.78242684 67.24483383 -15.7720179 63.63629953 -15.75390625 60.02758789 C-15.73127064 55.41773891 -15.73066671 50.80821818 -15.7374239 46.19832897 C-15.74077791 42.64053976 -15.73410604 39.08282438 -15.72429466 35.52504921 C-15.7204632 33.82631124 -15.71928587 32.12756502 -15.72088051 30.42882347 C-15.72125443 28.04557254 -15.70853889 25.66273012 -15.69238281 23.27954102 C-15.69486023 22.58680084 -15.69733765 21.89406067 -15.69989014 21.18032837 C-15.63332215 14.97833972 -15.08410408 9.25600057 -10.98022461 4.41552734 C-7.06009337 1.1646868 -5.04399501 0.03939462 0 0 Z " fill="#72B6FA" transform="translate(73.417724609375,-0.29052734375)"/>
<path d="M0 0 C1.11002632 0.00137466 1.11002632 0.00137466 2.24247742 0.0027771 C3.79298388 0.0087782 5.34348067 0.02441819 6.89379883 0.04931641 C9.27272877 0.08610778 11.65011048 0.09033334 14.02929688 0.08984375 C15.5403781 0.0996659 17.05144878 0.11131896 18.5625 0.125 C19.27392654 0.12722565 19.98535309 0.12945129 20.71833801 0.13174438 C25.71696301 0.22868176 25.71696301 0.22868176 27.94921875 2.4609375 C28.19921875 5.4609375 28.19921875 5.4609375 27.94921875 8.4609375 C25.26197357 11.14818268 23.84773593 10.72653059 20.09375 10.76953125 C18.91361328 10.79466797 17.73347656 10.81980469 16.51757812 10.84570312 C14.03325146 10.88058447 11.54887179 10.91189222 9.06445312 10.93945312 C0.1010891 11.12969718 0.1010891 11.12969718 -8.05078125 14.4609375 C-9.64953476 17.65844451 -9.55244449 20.99052741 -9.05078125 24.4609375 C-6.7191569 27.70855713 -4.87928013 28.71051006 -1.05078125 29.4609375 C1.76452068 29.5606642 4.55504344 29.60780103 7.37036133 29.60620117 C8.21801559 29.60955978 9.06566986 29.6129184 9.93901062 29.61637878 C12.74060534 29.62587561 15.54214019 29.62783135 18.34375 29.62890625 C20.29424565 29.63212003 22.24474106 29.63548419 24.19523621 29.63899231 C28.28486693 29.64498063 32.37447653 29.64683254 36.46411133 29.64624023 C41.6962043 29.6461387 46.92816129 29.65978312 52.16022205 29.67701244 C56.1897595 29.68814967 60.21926427 29.6901589 64.24881554 29.68963051 C66.17725785 29.69080832 68.10570107 29.69521894 70.03412819 29.70296288 C72.7361455 29.71279622 75.43787022 29.70987138 78.13989258 29.70385742 C78.93130646 29.70947693 79.72272034 29.71509644 80.53811646 29.72088623 C85.35946532 29.69371516 89.43148874 29.21935706 93.94921875 27.4609375 C95.18373196 23.75739787 95.51586799 20.31104743 94.94921875 16.4609375 C92.61809914 13.2140209 90.78701654 12.17390949 86.94921875 11.4609375 C84.87578627 11.33686659 82.79930399 11.26012083 80.72265625 11.21484375 C79.52640625 11.18197266 78.33015625 11.14910156 77.09765625 11.11523438 C74.57431502 11.05384874 72.05087035 10.9965819 69.52734375 10.94335938 C68.33367187 10.90919922 67.14 10.87503906 65.91015625 10.83984375 C64.81493652 10.8147876 63.7197168 10.78973145 62.59130859 10.76391602 C59.94921875 10.4609375 59.94921875 10.4609375 57.94921875 8.4609375 C57.69921875 5.4609375 57.69921875 5.4609375 57.94921875 2.4609375 C60.7632703 -0.35311405 63.49226901 0.10017072 67.265625 0.0546875 C67.99611557 0.04328735 68.72660614 0.03188721 69.47923279 0.0201416 C71.03012294 0.00122843 72.58109372 -0.01183166 74.13208008 -0.01953125 C76.4795111 -0.03879815 78.82332507 -0.10074124 81.16992188 -0.1640625 C88.86409026 -0.27256058 95.06473985 -0.13978241 101.34326172 4.87304688 C106.33963696 9.81321479 107.22466472 13.41923002 107.57421875 20.3359375 C107.39456796 26.15910098 106.32778635 29.88211976 102.9453125 34.59375 C96.95269756 40.19936633 91.85377179 41.05316487 83.93408203 41.01025391 C82.95265228 41.02047577 81.97122253 41.03069763 80.96005249 41.04122925 C77.72962762 41.0689314 74.50006048 41.0671148 71.26953125 41.0625 C69.01422817 41.07027907 66.758928 41.07894948 64.50363159 41.08847046 C59.78113296 41.10337565 55.0589334 41.10282669 50.33642578 41.09228516 C44.29819416 41.08070014 38.26119038 41.11455404 32.2231617 41.1609745 C27.56640521 41.1905049 22.90994252 41.19218512 18.25310898 41.18595505 C16.02765344 41.18697876 13.80218088 41.19740341 11.57681656 41.21757889 C8.45812533 41.24238389 5.34180071 41.22868504 2.22314453 41.20556641 C0.85751373 41.22849762 0.85751373 41.22849762 -0.53570557 41.25189209 C-7.41937757 41.13966838 -11.82571735 38.90268948 -17.05078125 34.4609375 C-21.63535624 29.09363019 -21.7770849 23.86957309 -21.5625 16.9140625 C-20.79477045 11.73335319 -18.87271043 8.03604933 -15.05078125 4.4609375 C-9.94098788 1.04321868 -6.19761605 -0.12700051 0 0 Z " fill="#7AC5FA" transform="translate(21.05078125,87.5390625)"/>
</svg>
