<svg width="162" height="14" viewBox="0 0 162 14" fill="none" xmlns="http://www.w3.org/2000/svg">
<path d="M40.4084 5.74645C40.3686 5.34541 40.1979 5.03385 39.8963 4.81179C39.5947 4.58973 39.1854 4.47869 38.6683 4.47869C38.317 4.47869 38.0204 4.52841 37.7784 4.62784C37.5365 4.72396 37.3509 4.85819 37.2216 5.03054C37.0956 5.20289 37.0327 5.39844 37.0327 5.61719C37.026 5.79948 37.0642 5.95857 37.147 6.09446C37.2332 6.23035 37.3509 6.34801 37.5 6.44744C37.6491 6.54356 37.8215 6.62808 38.017 6.70099C38.2126 6.7706 38.4214 6.83026 38.6435 6.87997L39.5582 7.09872C40.0024 7.19815 40.41 7.33073 40.7812 7.49645C41.1525 7.66217 41.474 7.866 41.7457 8.10795C42.0175 8.34991 42.228 8.63494 42.3771 8.96307C42.5296 9.29119 42.6075 9.66738 42.6108 10.0916C42.6075 10.7147 42.4484 11.255 42.1335 11.7124C41.822 12.1664 41.3712 12.5194 40.7812 12.7713C40.1946 13.0199 39.487 13.1442 38.6584 13.1442C37.8364 13.1442 37.1205 13.0182 36.5107 12.7663C35.9041 12.5144 35.4302 12.1416 35.0888 11.6477C34.7507 11.1506 34.5734 10.5357 34.5568 9.80327H36.6399C36.6631 10.1447 36.7609 10.4297 36.9332 10.6584C37.1089 10.8838 37.3426 11.0545 37.6342 11.1705C37.9292 11.2831 38.2623 11.3395 38.6335 11.3395C38.9981 11.3395 39.3146 11.2865 39.5831 11.1804C39.8549 11.0743 40.0653 10.9268 40.2145 10.7379C40.3636 10.549 40.4382 10.3319 40.4382 10.0866C40.4382 9.85796 40.3703 9.66572 40.2344 9.50994C40.1018 9.35417 39.9063 9.22159 39.6477 9.11222C39.3925 9.00284 39.0793 8.90341 38.7081 8.81392L37.5994 8.53551C36.741 8.32671 36.0632 8.00024 35.5661 7.55611C35.0689 7.11198 34.822 6.51373 34.8253 5.76136C34.822 5.14489 34.986 4.6063 35.3175 4.1456C35.6522 3.6849 36.1113 3.32528 36.6946 3.06676C37.2779 2.80824 37.9408 2.67898 38.6832 2.67898C39.4389 2.67898 40.0985 2.80824 40.6619 3.06676C41.2287 3.32528 41.6695 3.6849 41.9844 4.1456C42.2992 4.6063 42.4616 5.13992 42.4716 5.74645H40.4084Z" fill="black"/>
<path d="M53.0424 6.38281H50.8649C50.8251 6.10109 50.7439 5.85085 50.6213 5.6321C50.4986 5.41004 50.3412 5.22112 50.149 5.06534C49.9567 4.90956 49.7347 4.79025 49.4828 4.70739C49.2342 4.62453 48.9641 4.5831 48.6724 4.5831C48.1454 4.5831 47.6864 4.71402 47.2953 4.97585C46.9042 5.23438 46.6009 5.61222 46.3855 6.10938C46.17 6.60322 46.0623 7.20313 46.0623 7.90909C46.0623 8.63494 46.17 9.24479 46.3855 9.73864C46.6042 10.2325 46.9091 10.6054 47.3002 10.8572C47.6913 11.1091 48.1438 11.2351 48.6575 11.2351C48.9458 11.2351 49.2127 11.197 49.4579 11.1207C49.7065 11.0445 49.9269 10.9335 50.1191 10.7876C50.3114 10.6385 50.4705 10.4579 50.5964 10.2457C50.7257 10.0336 50.8152 9.79167 50.8649 9.51989L53.0424 9.52983C52.9861 9.99716 52.8452 10.4479 52.6199 10.8821C52.3978 11.313 52.0978 11.6991 51.72 12.0405C51.3455 12.3786 50.898 12.647 50.3777 12.8459C49.8606 13.0414 49.2756 13.1392 48.6227 13.1392C47.7145 13.1392 46.9025 12.9337 46.1866 12.5227C45.474 12.1117 44.9106 11.5168 44.4963 10.7379C44.0853 9.95904 43.8798 9.0161 43.8798 7.90909C43.8798 6.79877 44.0886 5.85417 44.5062 5.07528C44.9238 4.2964 45.4906 3.70313 46.2065 3.29546C46.9224 2.88447 47.7278 2.67898 48.6227 2.67898C49.2127 2.67898 49.7595 2.76184 50.2633 2.92756C50.7704 3.09328 51.2195 3.33523 51.6106 3.65341C52.0017 3.96828 52.3199 4.3544 52.5652 4.81179C52.8137 5.26918 52.9728 5.79285 53.0424 6.38281Z" fill="black"/>
<path d="M54.5861 13V2.81818H58.6032C59.3721 2.81818 60.0284 2.95573 60.5719 3.23082C61.1188 3.5026 61.5347 3.88873 61.8198 4.38921C62.1081 4.88636 62.2523 5.47135 62.2523 6.14418C62.2523 6.82031 62.1065 7.40199 61.8148 7.8892C61.5231 8.37311 61.1006 8.74432 60.5471 9.00284C59.9969 9.26136 59.3307 9.39063 58.5485 9.39063H55.8588V7.66051H58.2005C58.6114 7.66051 58.9528 7.60417 59.2246 7.49148C59.4964 7.37879 59.6986 7.20975 59.8311 6.98438C59.967 6.759 60.035 6.47893 60.035 6.14418C60.035 5.80611 59.967 5.52107 59.8311 5.28906C59.6986 5.05706 59.4947 4.88139 59.2196 4.76207C58.9479 4.63944 58.6048 4.57813 58.1905 4.57813H56.7388V13H54.5861ZM60.0847 8.36648L62.6152 13H60.2388L57.763 8.36648H60.0847Z" fill="black"/>
<path d="M73.1301 7.90909C73.1301 9.01941 72.9197 9.96402 72.4988 10.7429C72.0811 11.5218 71.5111 12.1167 70.7885 12.5277C70.0693 12.9354 69.2606 13.1392 68.3624 13.1392C67.4576 13.1392 66.6455 12.9337 65.9263 12.5227C65.2071 12.1117 64.6387 11.5168 64.2211 10.7379C63.8034 9.95904 63.5946 9.0161 63.5946 7.90909C63.5946 6.79877 63.8034 5.85417 64.2211 5.07528C64.6387 4.2964 65.2071 3.70313 65.9263 3.29546C66.6455 2.88447 67.4576 2.67898 68.3624 2.67898C69.2606 2.67898 70.0693 2.88447 70.7885 3.29546C71.5111 3.70313 72.0811 4.2964 72.4988 5.07528C72.9197 5.85417 73.1301 6.79877 73.1301 7.90909ZM70.9476 7.90909C70.9476 7.18987 70.8399 6.58333 70.6245 6.08949C70.4123 5.59564 70.1124 5.22112 69.7246 4.96591C69.3368 4.7107 68.8828 4.5831 68.3624 4.5831C67.842 4.5831 67.388 4.7107 67.0002 4.96591C66.6124 5.22112 66.3108 5.59564 66.0954 6.08949C65.8832 6.58333 65.7772 7.18987 65.7772 7.90909C65.7772 8.62831 65.8832 9.23485 66.0954 9.72869C66.3108 10.2225 66.6124 10.5971 67.0002 10.8523C67.388 11.1075 67.842 11.2351 68.3624 11.2351C68.8828 11.2351 69.3368 11.1075 69.7246 10.8523C70.1124 10.5971 70.4123 10.2225 70.6245 9.72869C70.8399 9.23485 70.9476 8.62831 70.9476 7.90909Z" fill="black"/>
<path d="M74.7248 13V2.81818H76.8775V11.2251H81.2425V13H74.7248Z" fill="black"/>
<path d="M82.6681 13V2.81818H84.8208V11.2251H89.1859V13H82.6681Z" fill="black"/>
<path d="M93.464 4.59304V2.81818H101.826V4.59304H98.709V13H96.5811V4.59304H93.464Z" fill="black"/>
<path d="M103.203 13V2.81818H105.356V7.01918H109.726V2.81818H111.874V13H109.726V8.79403H105.356V13H103.203Z" fill="black"/>
<path d="M115.801 2.81818V13H113.649V2.81818H115.801Z" fill="black"/>
<path d="M123.096 5.74645C123.056 5.34541 122.885 5.03385 122.584 4.81179C122.282 4.58973 121.873 4.47869 121.356 4.47869C121.005 4.47869 120.708 4.52841 120.466 4.62784C120.224 4.72396 120.038 4.85819 119.909 5.03054C119.783 5.20289 119.72 5.39844 119.72 5.61719C119.714 5.79948 119.752 5.95857 119.835 6.09446C119.921 6.23035 120.038 6.34801 120.188 6.44744C120.337 6.54356 120.509 6.62808 120.705 6.70099C120.9 6.7706 121.109 6.83026 121.331 6.87997L122.246 7.09872C122.69 7.19815 123.098 7.33073 123.469 7.49645C123.84 7.66217 124.161 7.866 124.433 8.10795C124.705 8.34991 124.915 8.63494 125.065 8.96307C125.217 9.29119 125.295 9.66738 125.298 10.0916C125.295 10.7147 125.136 11.255 124.821 11.7124C124.509 12.1664 124.059 12.5194 123.469 12.7713C122.882 13.0199 122.174 13.1442 121.346 13.1442C120.524 13.1442 119.808 13.0182 119.198 12.7663C118.592 12.5144 118.118 12.1416 117.776 11.6477C117.438 11.1506 117.261 10.5357 117.244 9.80327H119.327C119.351 10.1447 119.448 10.4297 119.621 10.6584C119.796 10.8838 120.03 11.0545 120.322 11.1705C120.617 11.2831 120.95 11.3395 121.321 11.3395C121.686 11.3395 122.002 11.2865 122.271 11.1804C122.542 11.0743 122.753 10.9268 122.902 10.7379C123.051 10.549 123.126 10.3319 123.126 10.0866C123.126 9.85796 123.058 9.66572 122.922 9.50994C122.789 9.35417 122.594 9.22159 122.335 9.11222C122.08 9.00284 121.767 8.90341 121.396 8.81392L120.287 8.53551C119.429 8.32671 118.751 8.00024 118.254 7.55611C117.756 7.11198 117.509 6.51373 117.513 5.76136C117.509 5.14489 117.674 4.6063 118.005 4.1456C118.34 3.6849 118.799 3.32528 119.382 3.06676C119.965 2.80824 120.628 2.67898 121.371 2.67898C122.126 2.67898 122.786 2.80824 123.349 3.06676C123.916 3.32528 124.357 3.6849 124.672 4.1456C124.987 4.6063 125.149 5.13992 125.159 5.74645H123.096Z" fill="black"/>
<path d="M132.278 13L129.365 2.81818H131.717L133.402 9.89276H133.487L135.346 2.81818H137.359L139.214 9.90767H139.303L140.989 2.81818H143.34L140.427 13H138.329L136.39 6.34304H136.31L134.376 13H132.278Z" fill="black"/>
<path d="M145.222 13H142.915L146.43 2.81818H149.204L152.714 13H150.407L147.857 5.14489H147.777L145.222 13ZM145.078 8.99787H150.527V10.6783H145.078V8.99787Z" fill="black"/>
<path d="M152.304 2.81818H154.715L157.037 7.20313H157.136L159.458 2.81818H161.869L158.156 9.40057V13H156.018V9.40057L152.304 2.81818Z" fill="black"/>
<path fill-rule="evenodd" clip-rule="evenodd" d="M19.625 7C19.625 6.6203 19.3172 6.3125 18.9375 6.3125H2.72227L7.04864 1.98614C7.31712 1.71765 7.31712 1.28235 7.04864 1.01386C6.78015 0.745379 6.34485 0.745379 6.07636 1.01386L0.576364 6.51386C0.307879 6.78235 0.307879 7.21765 0.576364 7.48614L6.07636 12.9861C6.34485 13.2546 6.78015 13.2546 7.04864 12.9861C7.31712 12.7177 7.31712 12.2823 7.04864 12.0139L2.72227 7.6875H18.9375C19.3172 7.6875 19.625 7.3797 19.625 7Z" fill="black"/>
</svg>
