<?xml version="1.0" standalone="no"?>
<!DOCTYPE svg PUBLIC "-//W3C//DTD SVG 20010904//EN"
 "http://www.w3.org/TR/2001/REC-SVG-20010904/DTD/svg10.dtd">
<svg version="1.0" xmlns="http://www.w3.org/2000/svg"
 width="882.000000pt" height="744.000000pt" viewBox="0 0 882.000000 744.000000"
 preserveAspectRatio="xMidYMid meet">

<g transform="translate(0.000000,744.000000) scale(0.100000,-0.100000)"
fill="#000000" stroke="none">
<path d="M2220 6504 c-386 -35 -607 -98 -771 -223 -102 -77 -169 -170 -216
-298 -61 -168 -73 -338 -73 -1012 0 -295 -5 -576 -10 -626 -14 -126 -51 -225
-102 -271 -52 -47 -132 -83 -214 -97 l-64 -11 0 -277 0 -277 61 -11 c69 -12
157 -49 207 -88 37 -28 71 -93 98 -188 15 -53 18 -145 24 -745 6 -561 10 -703
24 -785 50 -306 167 -472 418 -589 102 -48 248 -86 423 -110 144 -21 330 -36
433 -36 l82 0 0 373 0 373 -90 12 c-98 13 -209 49 -242 78 -53 48 -53 37 -58
754 l-6 665 -27 88 c-40 129 -71 183 -151 263 -87 87 -184 144 -318 189 -57
18 -96 36 -88 38 8 3 40 13 70 22 205 63 370 192 445 349 69 145 69 138 75
871 3 363 9 669 14 680 20 45 48 74 89 93 53 25 179 52 242 52 l45 0 0 380 0
380 -82 -1 c-46 -1 -153 -8 -238 -15z"/>
<path d="M6300 6126 l0 -374 63 -7 c88 -10 204 -41 242 -65 19 -12 43 -40 54
-64 20 -41 21 -56 21 -607 0 -720 9 -817 87 -976 73 -150 245 -279 450 -340
35 -10 63 -21 63 -24 0 -3 -28 -14 -62 -23 -226 -63 -409 -215 -478 -398 -52
-140 -53 -148 -57 -833 -3 -442 -7 -649 -15 -670 -16 -44 -47 -75 -96 -97 -48
-22 -175 -48 -233 -48 l-39 0 0 -381 0 -382 153 7 c186 9 353 29 514 61 212
43 355 109 466 214 110 105 162 206 209 401 19 79 21 131 28 780 7 638 10 702
28 786 32 149 71 205 175 255 33 15 90 33 128 40 l69 12 0 279 c0 254 -1 278
-17 278 -31 0 -148 32 -186 52 -59 30 -113 84 -136 137 -48 113 -53 180 -61
916 -8 725 -9 731 -56 880 -26 80 -93 202 -141 255 -91 102 -250 185 -443 233
-161 40 -473 77 -652 77 l-78 0 0 -374z"/>
<path d="M3350 3815 l0 -2475 698 0 c745 0 861 5 1007 46 417 116 621 431 702
1085 25 207 25 706 0 869 -45 287 -116 458 -242 586 -79 80 -141 119 -235 150
l-64 21 39 13 c86 27 180 85 250 155 85 84 150 207 186 355 23 91 24 111 24
455 0 390 -7 466 -62 635 -46 144 -100 236 -193 330 -115 117 -228 174 -445
227 -62 15 -161 17 -867 20 l-798 4 0 -2476z m1274 1701 c18 -7 46 -31 64 -51
49 -60 55 -121 50 -495 -6 -364 -12 -406 -74 -479 -42 -49 -90 -61 -239 -61
l-105 0 0 550 0 550 135 0 c93 0 146 -4 169 -14z m-20 -1878 c83 -24 127 -73
167 -188 22 -63 23 -78 27 -495 4 -447 1 -499 -38 -576 -34 -65 -93 -114 -167
-137 -84 -26 -168 -36 -228 -27 l-45 7 0 714 0 714 121 0 c67 0 140 -5 163
-12z"/>
</g>
</svg>
